<?xml version="1.0" standalone="no"?>
<!DOCTYPE svg PUBLIC "-//W3C//DTD SVG 1.1//EN" "http://www.w3.org/Graphics/SVG/1.1/DTD/svg11.dtd" >
<svg xmlns="http://www.w3.org/2000/svg" xmlns:xlink="http://www.w3.org/1999/xlink" version="1.1">
<metadata>
Created by FontForge 20170924 at Wed Oct 26 15:24:41 2005
 By www-data
Generated by Fontographer 4.1
</metadata>
<defs>
<font id="FabianestemNormal" horiz-adv-x="500" >
  <font-face 
    font-family="fabianestem"
    font-weight="400"
    font-style="italic"
    font-stretch="normal"
    units-per-em="1000"
    panose-1="0 0 4 0 0 0 0 0 0 0"
    ascent="800"
    descent="-200"
    x-height="800"
    cap-height="800"
    bbox="-1 -1 1619 800"
    underline-thickness="20"
    underline-position="-143"
    slope="10"
    unicode-range="U+0020-00FC"
  />
<missing-glyph 
d="M63 0v800h375v-800h-375zM125 63h250v675h-250v-675z" />
    <glyph glyph-name=".notdef" 
d="M63 0v800h375v-800h-375zM125 63h250v675h-250v-675z" />
    <glyph glyph-name=".null" horiz-adv-x="0" 
 />
    <glyph glyph-name="nonmarkingreturn" 
 />
    <glyph glyph-name="space" unicode=" " 
 />
    <glyph glyph-name="exclam" unicode="!" horiz-adv-x="296" 
d="M62 221l-62 428v151h245v-151l-56 -428h-127zM4 0v114h241v-114h-241z" />
    <glyph glyph-name="quotedbl" unicode="&#x22;" horiz-adv-x="941" 
d="M881 800v-800h-366v800h366zM367 800v-800h-367v800h367z" />
    <glyph glyph-name="numbersign" unicode="#" horiz-adv-x="1013" 
d="M604 396h-152l-49 -135h151zM599 800l-82 -232h144l82 232h183l-82 -232h163l-64 -172h-160l-48 -135h164l-64 -171h-161l-32 -90h-183l32 90h-144l-32 -90h-184l33 90h-164l63 171h162l47 135h-164l62 172h164l81 232h184z" />
    <glyph glyph-name="dollar" unicode="$" horiz-adv-x="612" 
d="M322 103q82 17 82 103q0 63 -82 100v-203zM257 546v181q-74 -15 -74 -85q0 -60 74 -96zM101 0q-101 72 -101 245v4h171q0 -4 -1 -11v-11q0 -107 82 -125v232q-237 86 -237 288q0 110 65 178h427q63 -67 65 -189h-167q-7 114 -76 114h-3v-210q127 -47 184 -105
q73 -74 73 -193q0 -151 -102 -217h-380z" />
    <glyph glyph-name="percent" unicode="%" horiz-adv-x="907" 
d="M624 136q0 -51 5 -73q10 -45 46 -45t47 45q5 21 5 73t-5 73q-11 46 -47 46t-46 -46q-5 -22 -5 -73zM487 136q0 113 37 165q43 62 152 62q108 0 152 -62q36 -52 36 -165q0 -85 -21 -136h-335q-21 51 -21 136zM211 0l374 800h109l-373 -800h-110zM136 574q0 -50 6 -74
q11 -45 46 -45q36 0 47 45q5 21 5 74q0 51 -5 72q-11 45 -47 45q-35 0 -46 -44q-6 -23 -6 -73zM0 574q0 112 37 164q43 62 151 62t152 -62q37 -51 37 -164t-37 -165q-44 -63 -152 -63t-151 63q-37 53 -37 165z" />
    <glyph glyph-name="ampersand" unicode="&#x26;" horiz-adv-x="773" 
d="M335 566q74 50 74 112q0 28 -17.5 44.5t-45.5 16.5q-59 0 -59 -60q0 -49 48 -113zM415 74l-144 230q-67 -66 -67 -140q0 -55 32 -93t86 -38q39 0 93 41zM31 0q-31 62 -31 143q0 179 178 317q-73 106 -73 203q0 80 48 137h406q38 -51 38 -125q0 -149 -162 -249l98 -158
q28 67 31 130h172q-6 -159 -91 -307l57 -91h-671z" />
    <glyph glyph-name="quotesingle" unicode="'" horiz-adv-x="550" 
d="M490 800v-800h-490v800h490z" />
    <glyph glyph-name="parenleft" unicode="(" horiz-adv-x="284" 
d="M38 0q-28 105 -28 290q0 289 113 510h132q-94 -244 -94 -503q0 -147 29 -297h-152z" />
    <glyph glyph-name="parenright" unicode=")" horiz-adv-x="265" 
d="M37 0q47 181 47 351q0 232 -84 449h117q110 -214 110 -455q0 -172 -60 -345h-130z" />
    <glyph glyph-name="asterisk" unicode="*" horiz-adv-x="1232" 
d="M584 340l-235 -334l-233 159l263 327l-379 105l65 203h221l163 -59v59h270v-59l166 59h218l70 -208l-381 -100l259 -324l-234 -168z" />
    <glyph glyph-name="plus" unicode="+" horiz-adv-x="777" 
d="M525 800v-176h215v-253h-215v-371h-259v371h-266v253h266v173z" />
    <glyph glyph-name="comma" unicode="," horiz-adv-x="867" 
d="M0 0v800h807v-800h-807z" />
    <glyph glyph-name="hyphen" unicode="-" horiz-adv-x="1679" 
d="M0 0v800h1619v-800h-1619z" />
    <glyph glyph-name="hyphen" unicode="&#x2010;" horiz-adv-x="1679" 
d="M0 0v800h1619v-800h-1619z" />
    <glyph glyph-name="period" unicode="." horiz-adv-x="867" 
d="M0 0v800h807v-800h-807z" />
    <glyph glyph-name="slash" unicode="/" horiz-adv-x="366" 
d="M0 45l290 755l60 -45l-290 -755z" />
    <glyph glyph-name="zero" unicode="0" horiz-adv-x="668" 
d="M228 284q0 -132 3 -155q15 -111 77 -111t77 112q3 23 3 154v165q0 127 -3 148q-15 103 -77 103q-79 0 -81 -172q1 94 1 -95v-149zM0 359q0 147 4 203q10 140 46 195q15 23 35 43h445q58 -56 74 -166q12 -83 12 -231q0 -156 -2 -205q-5 -133 -28 -198h-556q-12 33 -19 91
q-11 91 -11 268z" />
    <glyph glyph-name="one" unicode="1" horiz-adv-x="489" 
d="M202 0v558h-202v155h11q158 0 224 87h194v-800h-227z" />
    <glyph glyph-name="two" unicode="2" horiz-adv-x="569" 
d="M6 0q44 173 210 340q8 7 25 25l6 7q128 149 128 237q0 97 -71 97q-93 0 -93 -172v-18h-211v27q0 170 86 257h443q71 -74 71 -203q0 -152 -137 -292q-12 -12 -45 -46q-127 -125 -157 -202h336v-57h-591z" />
    <glyph glyph-name="three" unicode="3" horiz-adv-x="657" 
d="M1 194h212q2 -76 11 -110q19 -70 70 -70q82 0 82 147q0 81 -41 114q-37 31 -119 31q-21 0 -33 -1l-1 159h22q79 0 116 30q41 34 41 111q0 103 -67 103q-49 0 -65 -53q-8 -27 -11 -94h-207v13q0 145 79 226h429q71 -70 71 -178q0 -148 -144 -227q169 -65 169 -246
q0 -85 -28 -149h-557q-30 69 -30 164q0 5 1 15v15z" />
    <glyph glyph-name="four" unicode="4" horiz-adv-x="663" 
d="M361 227v407l-185 -407h185zM335 0v53h-335v192l289 555h264v-573h87v-174h-87v-53h-218z" />
    <glyph glyph-name="five" unicode="5" horiz-adv-x="626" 
d="M0 188h204q2 -66 12 -96q18 -54 69 -54q53 0 71 56q11 34 11 100q0 87 -8 123q-17 80 -73 80q-29 0 -54.5 -21t-35.5 -50h-182l15 474h511v-117h-340l-7 -179q79 53 165 53q221 0 221 -336q0 -117 -53 -169t-169 -52q-56 0 -166.5 12t-166.5 12q-24 62 -24 164z" />
    <glyph glyph-name="six" unicode="6" horiz-adv-x="650" 
d="M235 476q73 48 152 48q222 0 222 -321q0 -122 -33 -203h-543q-9 22 -15 51q-18 82 -18 297q0 137 4 197q9 129 38 193q16 35 43 62h448q61 -66 61 -177v-6h-215q-3 95 -70 95q-50 0 -67 -62q-9 -33 -9 -102q0 -44 2 -72zM228 178q0 -70 10 -105q18 -62 71 -62q50 0 65 67
q6 27 6 105q0 76 -8 106q-17 63 -71 63q-51 0 -66 -67q-7 -31 -7 -107z" />
    <glyph glyph-name="seven" unicode="7" horiz-adv-x="615" 
d="M140 0q59 304 237 661h-377v139h594v-112q-162 -289 -223 -688h-231z" />
    <glyph glyph-name="eight" unicode="8" horiz-adv-x="644" 
d="M223 603q0 -47 16 -80q20 -43 62 -43q43 0 64 43q16 32 16 80q0 115 -80 115q-78 0 -78 -115zM219 161q0 -148 81 -148q82 0 82 148q0 153 -81 153q-82 0 -82 -153zM125 400q-110 74 -110 211q0 119 67 189h436q67 -70 67 -189q0 -137 -110 -211q125 -77 125 -258
q0 -81 -25 -142h-550q-25 61 -25 142q0 181 125 258z" />
    <glyph glyph-name="nine" unicode="9" horiz-adv-x="658" 
d="M373 241q-75 -47 -151 -47q-222 0 -222 317q0 198 84 289h438q61 -61 78 -206q7 -61 7 -225q0 -189 -9 -263q-7 -60 -24 -106h-546q-15 45 -15 101l217 -1q2 -96 68 -96q51 0 68 63q8 30 8 102q0 51 -1 72zM378 538q0 73 -9 105q-18 63 -71 63q-48 0 -63 -68
q-7 -32 -7 -104q0 -73 8 -104q17 -65 68 -65q53 0 68 66q6 27 6 107z" />
    <glyph glyph-name="colon" unicode=":" horiz-adv-x="412" 
d="M116 0v312h315v-312h-315zM0 488v312h315v-312h-315z" />
    <glyph glyph-name="semicolon" unicode=";" horiz-adv-x="387" 
d="M161 227v247h248v-195q0 -137 -54 -202q-58 -69 -193 -77v88q133 12 133 139h-134zM0 597v203h205v-203h-205z" />
    <glyph glyph-name="less" unicode="&#x3c;" horiz-adv-x="1279" 
d="M1218 489l-828 -339l366 -150l-756 6v290l1218 504v-311z" />
    <glyph glyph-name="equal" unicode="=" horiz-adv-x="1354" 
d="M1290 293v-293h-1290v293h1290zM1290 800v-293h-1290v293h1290z" />
    <glyph glyph-name="greater" unicode="&#x3e;" horiz-adv-x="1009" 
d="M0 554l654 -267l-654 -267v-20h543l418 173v229l-961 398v-246z" />
    <glyph glyph-name="question" unicode="?" horiz-adv-x="751" 
d="M315 146q-23 73 -23 125q0 76 53 126q10 10 47 38q63 49 63 91t-39 63q-30 16 -69 7q-77 -18 -77 -88q0 -19 6 -41l1 -4l-270 -63q-7 39 -7 75q0 137 100 225l428 100q160 -41 195 -189q10 -42 6 -80q-5 -50 -37 -93q-22 -30 -72 -73q-22 -19 -41 -37q-29 -28 -35 -46
q-6 -20 2 -56q3 -8 7 -24zM332 0l-16 68l269 63l16 -68z" />
    <glyph glyph-name="at" unicode="@" horiz-adv-x="1214" 
d="M738 478l31 52h153l-99 -396q-2 -8 -2 -19q0 -31 29 -31q94 0 157 107q54 92 54 192q0 162 -124 251q-110 80 -277 80q-151 0 -268 -63q-125 -68 -192 -195q-53 -102 -53 -221q0 -138 70 -235h-168l-2 5q-47 117 -47 226q0 226 138 389q102 120 248 180h540
q69 -30 126 -79q151 -130 151 -336q0 -221 -167 -351q-27 -21 -53 -34h-274q-22 23 -26 59q-28 -37 -59 -59h-262q-78 53 -78 185q0 148 82 251q88 112 233 112q96 0 139 -70zM666 215l29 123q-9 89 -84 89q-72 0 -115 -92q-35 -74 -35 -154q0 -95 74 -95q50 0 87 41
q31 35 44 88z" />
    <glyph glyph-name="A" unicode="A" horiz-adv-x="497" 
d="M354 267l-104 400l-73 -400h177zM150 800h194l179 -801l-125 6l-27 129h-214l-19 -135h-117z" />
    <glyph glyph-name="B" unicode="B" horiz-adv-x="668" 
d="M232 412h15q133 0 133 117q0 109 -124 109q-17 0 -23 -2zM337 0q61 31 61 119q0 122 -150 122h-16v-241h-232v800h249q90 0 128 -4q76 -8 121 -35q108 -65 108 -210q0 -122 -107 -213q133 -67 133 -230q0 -56 -16 -108h-279z" />
    <glyph glyph-name="C" unicode="C" horiz-adv-x="568" 
d="M358 272h192q1 -15 1 -42q0 -155 -70 -230h-403q-52 52 -67 147q-11 70 -11 219q0 110 5 168q9 109 42 160q59 91 180 106h100q223 -27 223 -301v-8l-190 1q-1 70 -10 98q-17 55 -71 55q-82 0 -84 -167q1 49 1 54q1 6 1 -32v-118v-16l-2 -100q2 -180 84 -180q53 0 70 52
q9 28 9 97v37z" />
    <glyph glyph-name="D" unicode="D" horiz-adv-x="601" 
d="M211 633v-567q6 -1 12 -1h18q66 0 93 39q20 29 20 246v41q0 177 -19 205q-26 38 -96 38q-18 0 -28 -1zM0 0v800h231q105 0 158 -13q92 -23 133 -93q33 -56 42 -162q4 -46 4 -181q0 -131 -4 -180q-9 -115 -47 -171h-517z" />
    <glyph glyph-name="E" unicode="E" horiz-adv-x="528" 
d="M0 0v800h522v-186h-299v-177h276v-192h-276v-209h299v-36h-522z" />
    <glyph glyph-name="F" unicode="F" horiz-adv-x="541" 
d="M0 0v800h531v-189h-302v-177h280v-196h-280v-238h-229z" />
    <glyph glyph-name="G" unicode="G" horiz-adv-x="611" 
d="M573 370v-370h-534q-13 29 -21 67q-18 81 -18 272q0 263 50 342q75 119 247 119q268 0 268 -289q0 -5 -1 -16v-17h-201v11q0 61 -9 91q-16 54 -62 54q-61 0 -75 -94q-3 -20 -3 -139v-151q0 -115 3 -136q13 -94 72 -94q81 0 81 147q0 28 -1 45h-83v158h287z" />
    <glyph glyph-name="H" unicode="H" horiz-adv-x="782" 
d="M0 0v800h260v-420h208v420h254v-800h-254v150h-208v-150h-260z" />
    <glyph glyph-name="I" unicode="I" horiz-adv-x="268" 
d="M0 656v144h210v-144h-210zM0 0v596h210v-596h-210z" />
    <glyph glyph-name="J" unicode="J" horiz-adv-x="488" 
d="M2 282h168v-83q7 -59 41 -59q26 0 33 26q3 11 3 47v587h183v-514q0 -150 -27 -200q-46 -86 -181 -86q-123 0 -174 61q-48 56 -48 181q0 29 2 40z" />
    <glyph glyph-name="K" unicode="K" horiz-adv-x="747" 
d="M7 0v800h242v-430l182 430h247l-225 -454l137 -346h-241l-47 138l-53 -99v-39h-242z" />
    <glyph glyph-name="L" unicode="L" horiz-adv-x="412" 
d="M435 0h-435v800h198v-629h237v-171z" />
    <glyph glyph-name="M" unicode="M" horiz-adv-x="1022" 
d="M0 0v800h351l96 -457q10 -50 19 -125l15 -126q7 72 38 255l95 453h348v-800h-230l15 556l-114 -556h-304l-114 556l15 -556h-230z" />
    <glyph glyph-name="N" unicode="N" horiz-adv-x="559" 
d="M0 0v800h195l155 -493q-18 237 -18 367v126h167v-800h-195l-157 509q21 -204 21 -374v-135h-168z" />
    <glyph glyph-name="O" unicode="O" horiz-adv-x="607" 
d="M373 268v157q0 110 -4 131q-15 80 -80 80q-64 0 -79 -81q-4 -22 -4 -130v-157q0 -109 4 -130q16 -81 80 -81t79 81q4 21 4 130zM0 346q0 118 5 175q10 115 43 166q73 113 242 113q166 0 240 -113q35 -54 45 -166q5 -56 5 -175q0 -127 -5 -178q-11 -112 -48 -168h-475
q-36 53 -47 168q-5 53 -5 178z" />
    <glyph glyph-name="P" unicode="P" horiz-adv-x="669" 
d="M241 360q16 -2 31 -2q72 0 104 34t32 107q0 67 -42 94q-34 22 -105 22h-20v-255zM0 0v800h235q101 0 153 -6q91 -11 144 -43q116 -72 116 -265q0 -157 -83 -237t-240 -80h-84v-169h-241z" />
    <glyph glyph-name="Q" unicode="Q" horiz-adv-x="541" 
d="M312 416v131q0 89 -4 110q-13 67 -66 67q-54 0 -66 -68q-3 -17 -3 -109v-131q0 -94 3 -110q13 -68 66 -68t66 68q4 22 4 110zM277 102q-26 -3 -50 -3q-193 0 -221 215q-6 46 -6 167q0 99 4 146q8 98 36 139q12 18 28 34h349q46 -46 59 -132q10 -65 10 -187
q0 -126 -7 -174q-16 -109 -72 -153l60 -64l-98 -90z" />
    <glyph glyph-name="R" unicode="R" horiz-adv-x="577" 
d="M185 467q4 0 12 -1h11q57 0 82 23t25 79q0 54 -27 76q-24 19 -80 19q-4 0 -11 -1h-12v-195zM0 0v800h210q85 0 118 -4q71 -9 108 -39q68 -56 68 -166q0 -134 -99 -193q92 -40 92 -182v-3v-18q0 -10 1 -26q2 -135 44 -169h-218q-14 48 -14 111q0 14 1 41t1 41q0 63 -13 89
q-19 38 -76 38h-38v-320h-185z" />
    <glyph glyph-name="S" unicode="S" horiz-adv-x="567" 
d="M2 190h191v-26q0 -61 10 -88q17 -46 66 -46q35 0 54 26q17 23 17 59q0 64 -93 124q-7 5 -23 16l-10 6q-115 69 -156 128q-45 65 -45 161q0 118 68 184t186 66q265 0 265 -255q0 -4 -1 -14v-15h-187v11q0 119 -72 119q-32 0 -48.5 -22t-16.5 -55q0 -56 102 -120
q14 -9 51 -33q111 -71 140 -117q39 -62 39 -155q0 -84 -27 -144h-487q-25 58 -25 141q0 21 2 49z" />
    <glyph glyph-name="T" unicode="T" horiz-adv-x="462" 
d="M150 0v645h-150v155h495v-155h-158v-645h-187z" />
    <glyph glyph-name="U" unicode="U" horiz-adv-x="551" 
d="M0 800h185v-490q0 -83 3 -100q11 -63 60 -63t61 63q3 16 3 100v490h181v-499q0 -139 -32 -199q-54 -102 -218 -102q-207 0 -235 189q-8 54 -8 191v420z" />
    <glyph glyph-name="V" unicode="V" horiz-adv-x="594" 
d="M182 0l-179 800h198l69 -420q10 -61 22 -174l2 10q5 50 20 163l70 421h198l-182 -800h-218v0z" />
    <glyph glyph-name="W" unicode="W" horiz-adv-x="1218" 
d="M159 0l-159 800h267l77 -704q2 -22 8 -96h-193zM354 0q11 139 28 249l85 551h267l82 -550q2 -16 18 -154q6 -49 12 -96h-203l-17 134q-15 116 -26 272q-10 -150 -26 -274l-17 -132h-203zM849 0q11 143 22 244l61 556h267l-158 -800h-192z" />
    <glyph glyph-name="X" unicode="X" horiz-adv-x="694" 
d="M68 0l129 298l-197 502h241l92 -294l91 294h246l-203 -502l127 -298h-230l-31 96l-34 -96h-231z" />
    <glyph glyph-name="Y" unicode="Y" horiz-adv-x="582" 
d="M184 0v339l-184 461h201l77 -253l78 253h203l-183 -461v-339h-192z" />
    <glyph glyph-name="Z" unicode="Z" horiz-adv-x="492" 
d="M0 0v149l245 498h-225v153h432v-139l-246 -497h257v-164h-463z" />
    <glyph glyph-name="bracketleft" unicode="[" horiz-adv-x="287" 
d="M0 0v800h273v-125h-99v-675h-174z" />
    <glyph glyph-name="backslash" unicode="\" horiz-adv-x="468" 
d="M421 0l-421 782l80 18l421 -782z" />
    <glyph glyph-name="a" unicode="a" horiz-adv-x="700" 
d="M400 352q-171 -48 -171 -154q0 -36 20 -61t55 -25q96 0 96 148v92zM421 0l-6 32q-17 -18 -35 -32h-321q-59 65 -59 172q0 100 57 163q47 54 148 94q1 0 71 26q128 47 128 105q0 74 -72 74q-82 0 -82 -103v-5h-229q0 274 311 274q256 0 297 -160q10 -39 10 -138v-315
q0 -130 14 -187h-232z" />
    <glyph glyph-name="b" unicode="b" horiz-adv-x="470" 
d="M214 479q-37 0 -48 -51q-5 -23 -5 -80q0 -114 1 -123q10 -91 57 -91q37 0 46 59q2 13 2 86v123q-9 77 -53 77zM0 800h164v-249q44 68 116 68q111 0 141 -117q13 -50 13 -208q0 -168 -21 -214q-36 -80 -129 -80q-84 0 -132 81v-64h-152v783z" />
    <glyph glyph-name="c" unicode="c" horiz-adv-x="635" 
d="M385 304h232q0 -6 1 -16.5t1 -16.5q0 -194 -108 -271h-394q-26 19 -46 47q-71 99 -71 347t71 347q26 36 65 59h357q123 -71 123 -287v-15h-228v25q0 60 -9 89q-16 51 -63 51q-78 0 -78 -174q1 99 1 122q1 22 1 -32v-185q0 -138 2 -156q13 -116 73 -116q71 0 71 142
q0 -6 -1 20v20z" />
    <glyph glyph-name="d" unicode="d" horiz-adv-x="493" 
d="M220 479q37 0 48 -51q5 -23 5 -80q0 -113 -1 -123q-9 -91 -56 -91q-38 0 -47 59q-2 13 -2 86v16q0 99 1 107q9 77 52 77zM434 800h-164v-249q-44 68 -116 68q-111 0 -141 -117q-13 -50 -13 -208q0 -168 21 -214q37 -80 129 -80q84 0 132 81v-64h152v783z" />
    <glyph glyph-name="e" unicode="e" horiz-adv-x="654" 
d="M456 258h209v-20q0 -170 -107 -238h-369q-72 44 -95 146q-16 71 -16 224q0 129 7 182q14 110 65 165q76 83 233 83q250 0 280 -217q6 -43 6 -139v-96h-364q0 -2 -1 -9q-2 -57 -2 -71q0 -70 9 -97q17 -53 70 -53q77 0 77 102q0 5 -2 32v6zM311 486h150v5q3 30 3 42
q0 115 -78 115q-77 0 -77 -117q0 -32 2 -45z" />
    <glyph glyph-name="f" unicode="f" horiz-adv-x="327" 
d="M68 0v471h-68v128h68q0 5 -1 15v14q0 95 41 133.5t136 38.5q29 0 63 -3v-121q-8 1 -20 1q-53 0 -53 -58q0 -14 1 -20h72v-128h-72v-471h-167z" />
    <glyph glyph-name="g" unicode="g" horiz-adv-x="581" 
d="M551 800v-95h-38q-32 0 -49 -9t-31 -36q65 -53 65 -118q0 -84 -73 -130q-61 -39 -150 -39q-44 0 -102 14q-38 -18 -38 -54q0 -26 25 -41q21 -13 49 -13h164q75 0 124 -37q55 -41 55 -113q0 -78 -72 -129h-435q-45 36 -45 97q0 74 80 112q-59 49 -59 119q0 68 52 122
q-33 38 -33 91q0 57 39 100h290q0 159 136 159h46zM269 446q102 0 102 96q0 41 -30 65q-27 21 -69 21q-45 0 -74 -23.5t-29 -67.5t29 -68q26 -23 71 -23zM115 94q35 -61 178 -61t143 74q0 44 -71 66q-51 15 -107 15q-49 0 -90 -12q-61 -18 -61 -55q0 -13 8 -27z" />
    <glyph glyph-name="h" unicode="h" horiz-adv-x="428" 
d="M0 0v800h172v-271q44 78 139 78q139 0 139 -199v-408h-172v359q0 57 -2 68q-8 42 -42 42q-62 0 -62 -106v-363h-172z" />
    <glyph glyph-name="i" unicode="i" horiz-adv-x="272" 
d="M0 727v73h215v-73h-215zM0 0v643h215v-643h-215z" />
    <glyph glyph-name="j" unicode="j" horiz-adv-x="250" 
d="M193 194q0 -62 -3 -85q-8 -59 -40.5 -84t-94.5 -25q-26 0 -55 4v109h5q3 -1 5 -1q28 0 35 33q2 10 2 56v502h146v-509zM47 756v44h146v-44h-146z" />
    <glyph glyph-name="k" unicode="k" horiz-adv-x="546" 
d="M0 0v800h189v-453l151 225h193l-201 -263l148 -309h-188l-72 164l-31 -44v-120h-189z" />
    <glyph glyph-name="l" unicode="l" horiz-adv-x="462" 
d="M0 0v800h225v-750h270v-50h-495z" />
    <glyph glyph-name="m" unicode="m" horiz-adv-x="1073" 
d="M-1 0v782h229v-110q81 128 194 128q150 0 200 -128q81 128 195 128q132 0 182 -88q37 -66 37 -211v-501h-248v441q0 80 -3 95q-11 57 -59 57q-50 0 -73 -58q-16 -41 -16 -101v-434h-243v441q0 76 -4 95q-12 57 -59 57q-49 0 -72 -59q-16 -41 -16 -100v-434h-244z" />
    <glyph glyph-name="n" unicode="n" horiz-adv-x="660" 
d="M601 0v784h-216v-98q-75 114 -201 114q-109 0 -152 -85q-32 -62 -32 -182v-533h229v468q0 75 3 91q11 57 56 57q82 0 82 -143v-473h231z" />
    <glyph glyph-name="o" unicode="o" horiz-adv-x="682" 
d="M240 353q0 -257 -2 -93q2 -175 77 -175t77 174q-1 -83 -1 -100q-1 -17 -1 32v162l2 95q-2 175 -77 175t-77 -176q1 51 1 58q1 6 1 -32v-120zM0 353q0 216 51 313q70 134 264 134t264 -133q51 -97 51 -314q0 -256 -76 -353h-479q-75 98 -75 353z" />
    <glyph glyph-name="p" unicode="p" horiz-adv-x="444" 
d="M213 321q45 0 55 88q2 17 2 118q0 57 -5 83q-11 56 -47 56q-47 0 -57 -91q-1 -9 -1 -123q0 -57 5 -80q11 -51 48 -51zM0 0v786h151v-66q46 80 132 80q132 0 147 -166q3 -34 3 -127q0 -157 -13 -208q-30 -118 -140 -118q-71 0 -117 69v-250h-163z" />
    <glyph glyph-name="q" unicode="q" horiz-adv-x="492" 
d="M220 321q-46 0 -55 88q-1 9 -1 118q0 62 4 83q11 56 48 56q47 0 56 -91q1 -10 1 -123q0 -57 -5 -80q-11 -51 -48 -51zM433 0v786h-151v-66q-46 80 -132 80q-132 0 -147 -166q-3 -34 -3 -127q0 -157 13 -208q30 -118 140 -118q72 0 117 69v-250h163z" />
    <glyph glyph-name="r" unicode="r" horiz-adv-x="393" 
d="M0 0v783h225v-123q77 128 196 140v-278q-40 9 -72 9q-73 0 -94 -71q-11 -37 -11 -133v-327h-244z" />
    <glyph glyph-name="s" unicode="s" horiz-adv-x="608" 
d="M0 141l232 -1q8 -139 100 -139q38 0 63.5 22.5t25.5 59.5q0 39 -30 64q-18 15 -64 37q-10 5 -40 19q-140 66 -196 122q-81 82 -81 197q0 136 94 210q86 68 225 68q146 0 228 -66q89 -72 89 -215v-17l-227 1q-2 60 -15 87q-19 42 -70 42q-38 0 -62 -20t-24 -57
q0 -61 116 -112q3 -1 25 -11q136 -62 190 -115q77 -76 77 -201q0 -65 -19 -116h-618q-19 52 -19 118v23z" />
    <glyph glyph-name="t" unicode="t" horiz-adv-x="344" 
d="M332 12q-64 -12 -95 -12q-106 0 -141 64q-20 37 -20 153v284h-67v128h67v171h174v-171h82v-128h-82v-253q0 -65 3 -77q10 -41 54 -41q4 0 12.5 1t12.5 1v-120z" />
    <glyph glyph-name="u" unicode="u" horiz-adv-x="704" 
d="M644 800v-800h-231v20q-7 -11 -14 -20h-369q-30 67 -30 183v617h248v-547q0 -82 3 -98q11 -60 60 -60q88 0 88 152v553h245z" />
    <glyph glyph-name="v" unicode="v" horiz-adv-x="689" 
d="M176 0l-176 800h246l85 -596l85 596h244l-177 -800h-307z" />
    <glyph glyph-name="w" unicode="w" horiz-adv-x="1160" 
d="M155 0l-155 800h270l78 -693l105 693h233l104 -693l79 693h269l-155 -800h-359l-56 353l-56 -353h-357z" />
    <glyph glyph-name="x" unicode="x" horiz-adv-x="614" 
d="M0 0l180 397l-172 403h246l60 -192l60 192h248l-172 -400l179 -400h-253l-62 196l-61 -196h-253z" />
    <glyph glyph-name="y" unicode="y" horiz-adv-x="490" 
d="M180 800l50 -332l51 332h180l-112 -518q-33 -151 -63 -199q-53 -83 -175 -83q-30 0 -78 7v141h4q19 -2 28 -2q63 0 63 49q0 13 -12 69q-1 9 -5 29l-111 507h180z" />
    <glyph glyph-name="z" unicode="z" horiz-adv-x="631" 
d="M0 0v148l338 571h-316v81h615v-62l-336 -563h336v-175h-637z" />
    <glyph glyph-name="nonbreakingspace" unicode="&#xa0;" 
 />
    <glyph glyph-name="Igrave" unicode="&#xcc;" horiz-adv-x="361" 
 />
    <glyph glyph-name="Iacute" unicode="&#xcd;" horiz-adv-x="358" 
 />
    <glyph glyph-name="Icircumflex" unicode="&#xce;" horiz-adv-x="519" 
 />
    <glyph glyph-name="Idieresis" unicode="&#xcf;" horiz-adv-x="541" 
 />
    <glyph glyph-name="Ntilde" unicode="&#xd1;" horiz-adv-x="622" 
d="M0 0v552h232l174 -552h-168l-63 206q11 -107 17 -206h-192zM414 0q-19 258 -19 403v149h198v-552h-179zM172 640h-62q28 143 127 143q24 0 43 -5l79 -21q11 -3 32 -3q42 0 54 46h63q-26 -146 -132 -146q-17 0 -37 5l-84 21q-16 4 -26 4q-45 0 -57 -44z" />
    <glyph glyph-name="agrave" unicode="&#xe0;" horiz-adv-x="504" 
d="M294 258q-125 -35 -125 -112q0 -63 54 -63q71 0 71 108v67zM309 0l-4 24q-13 -13 -26 -24h-235q-44 48 -44 126q0 73 41 120q35 39 109 69q2 1 52 19q95 35 95 78q0 54 -53 54q-60 0 -60 -76v-4h-169q0 202 229 202q189 0 218 -118q7 -28 7 -101v-232q0 -95 11 -137h-171
zM293 653h-74l-180 147h152z" />
    <glyph glyph-name="aacute" unicode="&#xe1;" horiz-adv-x="505" 
d="M294 259q-125 -35 -125 -113q0 -63 55 -63q70 0 70 109v67zM310 0l-4 24q-13 -13 -26 -24h-236q-44 48 -44 127q0 130 151 189q1 0 52 19q95 35 95 78q0 54 -53 54q-61 0 -61 -76v-4h-169q0 202 230 202q188 0 218 -118q8 -31 8 -101v-233q0 -95 10 -137h-171zM214 653
h74l181 147h-152z" />
    <glyph glyph-name="acircumflex" unicode="&#xe2;" horiz-adv-x="509" 
d="M308 246q-119 -34 -119 -108q0 -60 52 -60q67 0 67 104v64zM323 0l-5 23q-11 -13 -24 -23h-224q-41 45 -41 120q0 123 143 179q9 4 49 19q90 33 90 73q0 52 -50 52q-58 0 -58 -72v-4h-160q0 191 218 191q178 0 207 -111q7 -27 7 -96v-221q0 -90 10 -130h-162zM0 549
l98 220l162 31l172 -169l-97 -18l-138 79l-99 -124z" />
    <glyph glyph-name="atilde" unicode="&#xe3;" horiz-adv-x="554" 
d="M323 284q-138 -39 -138 -124q0 -69 61 -69q77 0 77 119v74zM340 0l-5 26q-13 -14 -28 -26h-259q-48 52 -48 139q0 78 46 131q40 46 119 77q3 1 58 21q103 38 103 85q0 59 -58 59q-66 0 -66 -83v-4h-185q0 222 251 222q208 0 240 -130q8 -32 8 -111v-255q0 -105 12 -151
h-188zM133 662l-54 -1q25 124 110 124q22 0 37 -4l69 -18q11 -3 27 -3q37 0 47 40h54q-22 -127 -113 -127q-11 0 -32 5l-74 18q-12 3 -22 3q-39 0 -49 -37z" />
    <glyph glyph-name="adieresis" unicode="&#xe4;" horiz-adv-x="564" 
d="M329 289q-140 -39 -140 -126q0 -71 61 -71q79 0 79 122v75zM346 0l-5 27q-14 -15 -29 -27h-263q-49 53 -49 141q0 82 46 134q40 45 122 78q12 4 59 21q105 38 105 87q0 60 -59 60q-67 0 -67 -84v-5h-189q0 226 256 226q210 0 244 -132q8 -31 8 -113v-260q0 -106 12 -153
h-191zM135 694v93h94v-93h-94zM308 707v93h94v-93h-94z" />
    <glyph glyph-name="aring" unicode="&#xe5;" horiz-adv-x="490" 
d="M286 252q-122 -35 -122 -110q0 -62 53 -62q69 0 69 106v66zM301 0l-4 23q-12 -13 -26 -23h-228q-43 46 -43 123q0 126 146 184q6 2 51 18q92 34 92 76q0 52 -51 52q-59 0 -59 -73v-4h-164q0 196 223 196q182 0 211 -114q8 -31 8 -99v-226q0 -92 10 -133h-166zM132 697
q0 43 29.5 73t72.5 30q42 0 72 -30.5t30 -72.5t-30 -71.5t-72 -29.5q-43 0 -72.5 29t-29.5 72zM194 698q0 -17 11.5 -28.5t28.5 -11.5t28.5 11.5t11.5 28.5t-11.5 28.5t-28.5 11.5t-28.5 -11.5t-11.5 -28.5z" />
    <glyph glyph-name="ae" unicode="&#xe6;" horiz-adv-x="1154" 
d="M1099 403h-408v0q-1 -4 -1 -14q-2 -55 -2 -105q0 -64 13 -95q20 -47 75 -47q85 0 85 119q0 25 -1 40l234 1v-23q0 -200 -129 -279h-371q-34 19 -66 44q-38 -26 -76 -44h-352q-100 71 -100 218q0 110 63 180q52 60 163 105q24 10 80 30q141 51 141 114q0 82 -79 82
q-91 0 -91 -114v-6h-254v4q0 116 51 187h972q37 -52 48 -139q5 -41 5 -149v-109zM689 559h171q0 2 1 4q2 34 2 50q0 129 -88 129q-89 0 -89 -129q0 -3 1 -20zM442 416q-188 -53 -188 -169q0 -42 20 -67q22 -28 63 -28q65 0 89 52q16 35 16 111v101z" />
    <glyph glyph-name="ccedilla" unicode="&#xe7;" horiz-adv-x="477" 
d="M283 500h171v-12q1 -8 1 -12q0 -237 -224 -237q-143 0 -194 97q-37 70 -37 230q0 158 39 234h384q29 -56 29 -147v-10h-167v17q0 104 -53 104q-46 0 -55 -84q-1 -9 -1 -114q0 -97 2 -115q9 -85 53 -85q53 0 53 105q0 5 -1 14v15zM94 21v70q79 -17 125 -17q44 0 44 37
q0 33 -61 33q-3 0 -9 -1h-10v112h60v-44q120 0 120 -101q0 -110 -132 -110q-78 0 -137 21z" />
    <glyph glyph-name="egrave" unicode="&#xe8;" horiz-adv-x="462" 
d="M281 192h156v-15q0 -127 -80 -177h-274q-54 32 -71 109q-12 53 -12 166q0 98 5 135q13 97 67 141t155 44q185 0 208 -161q5 -35 5 -104v-71h-271q0 -2 -1 -7q-2 -42 -2 -53q0 -51 7 -72q13 -39 53 -39q57 0 57 75q0 7 -2 24v5zM173 362h112v3q2 22 2 32q0 85 -58 85
q-57 0 -57 -88q0 -23 1 -32zM319 655h-74l-178 145h150z" />
    <glyph glyph-name="eacute" unicode="&#xe9;" horiz-adv-x="462" 
d="M281 192h156v-15q0 -127 -80 -177h-274q-54 32 -71 109q-12 53 -12 166q0 98 5 135q13 97 67 141t155 44q185 0 208 -161q5 -35 5 -104v-71h-271q0 -2 -1 -7q-2 -42 -2 -53q0 -51 7 -72q13 -39 53 -39q57 0 57 75q0 7 -2 24v5zM173 362h112v3q2 22 2 32q0 85 -58 85
q-57 0 -57 -88q0 -23 1 -32zM168 655h73l179 145h-151z" />
    <glyph glyph-name="ecircumflex" unicode="&#xea;" horiz-adv-x="454" 
d="M286 177h144v-14q0 -116 -74 -163h-252q-50 30 -66 100q-11 48 -11 154q0 87 5 124q12 89 61.5 129.5t142.5 40.5q172 0 193 -148q4 -28 4 -96v-66h-250v-6l-2 -48q0 -48 6 -67q12 -36 48 -36q53 0 53 70q0 6 -1 21q-1 3 -1 5zM187 333h103v3q2 21 2 30q0 78 -54 78
q-52 0 -52 -80q0 -22 1 -31zM0 559l94 211l156 30l165 -162l-94 -18l-132 77l-95 -120z" />
    <glyph glyph-name="edieresis" unicode="&#xeb;" horiz-adv-x="454" 
d="M280 183h149v-14q0 -121 -76 -169h-262q-51 31 -68 104q-11 48 -11 159q0 91 5 129q10 78 46 117q54 59 165 59q178 0 200 -154q4 -28 4 -99v-68h-259v-6l-2 -51q0 -48 7 -69q12 -37 49 -37q55 0 55 72q0 6 -1 23q-1 2 -1 4zM177 345h107v3q2 22 2 31q0 81 -56 81
q-54 0 -54 -83q0 -23 1 -32zM0 636v144h144v-144h-144zM266 657v143h144v-143h-144z" />
    <glyph glyph-name="igrave" unicode="&#xec;" horiz-adv-x="361" 
d="M150 0v530h194v-530h-194zM295 630h-86l-209 170h176z" />
    <glyph glyph-name="iacute" unicode="&#xed;" horiz-adv-x="358" 
d="M0 0v542h198v-542h-198zM39 626h88l214 174h-180z" />
    <glyph glyph-name="icircumflex" unicode="&#xee;" horiz-adv-x="519" 
d="M131 0v497h181v-497h-181zM0 513l112 252l185 35l197 -193l-112 -21l-157 91l-114 -142z" />
    <glyph glyph-name="idieresis" unicode="&#xef;" horiz-adv-x="327" 
d="M64 0v599h218v-599h-218zM0 676v108h110v-108h-110zM202 691v109h110v-109h-110z" />
    <glyph glyph-name="ntilde" unicode="&#xf1;" horiz-adv-x="647" 
d="M0 0v511h222v-101q76 118 205 118q111 0 156 -87q33 -65 33 -187v-254h-235v187q0 78 -3 94q-11 58 -57 58q-85 0 -85 -146v-193h-236zM152 611l-74 -1q33 170 150 170q27 0 51 -6l94 -24q20 -5 38 -5q50 0 64 55h74q-31 -173 -156 -173q-25 0 -44 5l-100 26q-15 4 -30 4
q-54 0 -67 -51z" />
    <glyph glyph-name="ograve" unicode="&#xf2;" horiz-adv-x="491" 
d="M178 263q0 -105 2 -115q9 -85 54 -85t55 84v231q-10 85 -55 85q-44 0 -54 -85q-2 -17 -2 -115zM0 263q0 160 38 232q52 99 196 99t196 -99q38 -72 38 -232q0 -191 -57 -263h-355q-56 75 -56 263zM302 647h-78l-188 153h159z" />
    <glyph glyph-name="oacute" unicode="&#xf3;" horiz-adv-x="482" 
d="M175 257q0 -103 1 -112q9 -83 53 -83q45 0 54 82q1 9 1 113t-1 113q-9 84 -54 84q-44 0 -53 -84q-1 -9 -1 -113zM0 257q0 157 37 228q51 98 192 98t193 -98q37 -70 37 -228q0 -186 -56 -257h-348q-55 73 -55 257zM194 650h76l184 150h-155z" />
    <glyph glyph-name="ocircumflex" unicode="&#xf4;" horiz-adv-x="511" 
d="M193 267q0 -107 1 -117q9 -86 55 -86t56 86v234q-10 86 -56 86q-45 0 -55 -86q-1 -9 -1 -117zM11 267q0 162 39 236q53 101 199 101q147 0 200 -101q38 -72 38 -236q0 -193 -58 -267h-361q-57 76 -57 267zM0 586l84 188l138 26l147 -144l-83 -16l-118 68l-85 -106z" />
    <glyph glyph-name="otilde" unicode="&#xf5;" horiz-adv-x="491" 
d="M178 262q0 -106 1 -115q10 -84 55 -84t54 84q1 9 1 115q0 107 -1 116q-9 84 -54 84t-55 -85q-1 -9 -1 -115zM0 262q0 160 38 232q53 100 196 100q144 0 196 -99q37 -71 37 -233q0 -190 -56 -262h-355q-56 75 -56 262zM101 669l-51 -1q23 118 104 118q21 0 36 -4l65 -17
q11 -3 26 -3q35 0 45 38h51q-21 -120 -108 -120q-15 0 -31 4l-69 17q-16 4 -21 4q-37 0 -47 -36z" />
    <glyph glyph-name="odieresis" unicode="&#xf6;" horiz-adv-x="522" 
d="M190 279q0 -113 1 -122q10 -90 58 -90t58 90q1 9 1 122q0 114 -1 123q-10 90 -58 90t-58 -90q-1 -9 -1 -123zM0 279q0 172 40 247q56 106 209 106t209 -105q40 -75 40 -248q0 -202 -61 -279h-378q-59 80 -59 279zM81 694v93h93v-93h-93zM252 708v92h94v-92h-94z" />
    <glyph glyph-name="ugrave" unicode="&#xf9;" horiz-adv-x="493" 
d="M469 583v-583h-168v14l-10 -14h-269q-22 49 -22 133v450h181v-399q0 -60 2 -71q8 -44 43 -44q64 0 64 111v403h179zM188 650h76l184 150h-155z" />
    <glyph glyph-name="uacute" unicode="&#xfa;" horiz-adv-x="483" 
d="M460 571v-571h-165v14l-10 -14h-264q-21 48 -21 130v441h177v-390q0 -59 2 -70q8 -43 43 -43q63 0 63 108v395h175zM300 652h-75l-181 148h153z" />
    <glyph glyph-name="ucircumflex" unicode="&#xfb;" horiz-adv-x="482" 
d="M459 569v-569h-165v14q-4 -7 -9 -14h-263q-21 48 -21 130v439h176v-389q0 -60 2 -70q9 -42 43 -42q63 0 63 107v394h174zM0 598l79 177l131 25l138 -136l-79 -15l-111 64l-79 -100z" />
    <glyph glyph-name="udieresis" unicode="&#xfc;" horiz-adv-x="535" 
d="M509 632v-632h-183v15q-5 -8 -11 -15h-292q-23 53 -23 144v488h196v-432q0 -66 2 -77q9 -48 48 -48q69 0 69 120v437h194zM109 694v93h93v-93h-93zM280 708v92h94v-92h-94z" />
    <glyph glyph-name="glyph122" 
 />
    <glyph glyph-name="glyph123" 
 />
    </font>
</defs>
</svg>
